<svg width="30" height="30" viewBox="0 0 30 30" fill="none" xmlns="http://www.w3.org/2000/svg">
<rect width="30" height="30" rx="4" fill="#FF7F27"/>
<path d="M15 7.5C19.1428 7.5 22.5 10.8583 22.5 15C22.5 19.1417 19.1428 22.5 15 22.5" stroke="white" stroke-width="1.5" stroke-linecap="round" stroke-linejoin="round"/>
<path d="M12.75 22.125C11.8587 21.8214 11.0215 21.383 10.2923 20.8096M10.2923 9.19039C11.0215 8.62544 11.8587 8.17855 12.75 7.875M7.5 13.6846C7.66205 12.8161 7.99514 11.9729 8.47229 11.2056M7.5 16.3154C7.66205 17.1839 7.99514 18.0271 8.47229 18.7944" stroke="white" stroke-width="1.5" stroke-linecap="round" stroke-linejoin="round"/>
<path d="M12 18.375C13.5545 16.7265 16.4288 16.6489 18 18.375M16.6634 13.3125C16.6634 14.2445 15.9161 15 14.9944 15C14.0726 15 13.3253 14.2445 13.3253 13.3125C13.3253 12.3805 14.0726 11.625 14.9944 11.625C15.9161 11.625 16.6634 12.3805 16.6634 13.3125Z" stroke="white" stroke-width="1.5" stroke-linecap="round"/>
</svg>
